# xmcd
#
# Track frame offsets:
#	150
#	1704
#	16051
#	23545
#	35264
#	48429
#	64605
#	75244
#	86613
#	101551
#	112627
#	129597
#	132732
#	144326
#	156155
#	164551
#
# Disc length: 2305 seconds
#
# Revision: 0
# Processed by: cddbd v1.5.2PL0 Copyright (c) Steve Scherf et al.
# Submitted via: audiograbber 1.83.01
#
DISCID=b408ff10
DTITLE=Bob Dylan - The Bootleg Series Vol. 15 1967-1969 Travelin' Thru [CD 3)
DYEAR=2019
DGENRE=Folk/Rock
TTITLE0=Bob Dylan and Johnny Cash - (Studio Chatter) [The Bob Dylan - Johnny Cash
TTITLE0=sessions]
TTITLE1=Bob Dylan and Johnny Cash - Wanted Man [The Bob Dylan - Johnny Cash sessi
TTITLE1=ons] [take 1]
TTITLE2=Bob Dylan and Johnny Cash - Amen [The Bob Dylan - Johnny Cash sessions] [
TTITLE2=rehearsal]
TTITLE3=Bob Dylan and Johnny Cash - Just A Closer Walk With Thee [The Bob Dylan -
TTITLE3=Johnny Cash sessions] [take 1]
TTITLE4=Bob Dylan and Johnny Cash - Jimmie Rodgers Medley No. 1 [The Bob Dylan - 
TTITLE4=Johnny Cash sessions] [take 1]
TTITLE5=Bob Dylan and Johnny Cash - Jimmie Rodgers Medley No. 2 [The Bob Dylan - 
TTITLE5=Johnny Cash sessions] [take 2]
TTITLE6=Bob Dylan - I Threw It All Away [live on The Johnny Cash Show] [mono]
TTITLE7=Bob Dylan - Living The Blues [live on The Johnny Cash Show] [mono]
TTITLE8=Bob Dylan and Johnny Cash - Girl From The North Country [live on The John
TTITLE8=ny Cash Show] [mono]
TTITLE9=Bob Dylan - Ring Of Fire [Self Portrait sessions outtake]
TTITLE10=Bob Dylan - Folsom Prison Blues [Self Portrait sessions outtake]
TTITLE11=Earl Scruggs - Earl Scruggs Interview [mono]
TTITLE12=Bob Dylan with Earl Scruggs - East Virginia Blues [mono]
TTITLE13=Bob Dylan with Earl Scruggs - To Be Alone With You [mono]
TTITLE14=Bob Dylan with Earl Scruggs - Honey, Just Allow Me One More Chance [mo
TTITLE14=no]
TTITLE15=Bob Dylan with Earl Scruggs - Nashville Skyline Rag
EXTD=
EXTT0=
EXTT1=
EXTT2=
EXTT3=
EXTT4=
EXTT5=
EXTT6=
EXTT7=
EXTT8=
EXTT9=
EXTT10=
EXTT11=
EXTT12=
EXTT13=
EXTT14=
EXTT15=
PLAYORDER=
